<svg width="14" height="14" viewBox="0 0 14 14" fill="none" xmlns="http://www.w3.org/2000/svg">
<g clip-path="url(#clip0)">
<path d="M13.834 13.0316L7.80289 7.00043L13.834 0.969371C14.0556 0.747751 14.0556 0.388372 13.834 0.166724C13.6123 -0.0549237 13.253 -0.0549237 13.0313 0.166724L7.00024 6.19779L0.969127 0.166724C0.747506 -0.0549237 0.388128 -0.0549237 0.16648 0.166724C-0.0551679 0.388345 -0.0551679 0.747723 0.16648 0.969371L6.19757 7.00043L0.16648 13.0316C-0.0551679 13.2532 -0.0551679 13.6126 0.16648 13.8342C0.388101 14.0558 0.747479 14.0558 0.969127 13.8342L7.00024 7.80308L13.0314 13.8342C13.253 14.0558 13.6124 14.0558 13.834 13.8342C14.0557 13.6126 14.0557 13.2532 13.834 13.0316Z" fill="white" fill-opacity="0.99"/>
</g>
<defs>
<clipPath id="clip0">
<rect width="14" height="14" fill="white"/>
</clipPath>
</defs>
</svg>
