<svg width="28" height="28" viewBox="0 0 28 28" fill="none" xmlns="http://www.w3.org/2000/svg">
<g filter="url(#filter0_d)">
<g clip-path="url(#clip0)">
<path d="M9.91279 1.93055L9.71519 1.95619C9.41017 1.99586 9.19502 2.27525 9.23469 2.58012L11.4553 19.6913H12.8043L10.5367 2.4112C10.4971 2.10618 10.2178 1.89103 9.91279 1.93055Z" fill="#996459"/>
<path d="M10.5367 2.4112C10.4971 2.10618 10.2178 1.89103 9.91281 1.93055L9.71521 1.95619C9.69797 1.95848 9.68118 1.96168 9.66455 1.96534C9.84613 2.03782 9.98438 2.20353 10.0114 2.4112L12.279 19.6913H12.8044L10.5367 2.4112Z" fill="#875850"/>
<path d="M15.7549 10.6386L6.09866 11.8915C5.64594 11.9504 5.23105 11.6309 5.17215 11.1777L4.5148 6.11298C4.4559 5.66025 4.77573 5.24536 5.22846 5.18646L11.1428 4.41879L14.8847 3.93311C15.3374 3.87421 15.7523 4.19403 15.8112 4.64676L16.3068 8.46481L16.4685 9.71161C16.5274 10.1648 16.2079 10.5797 15.7549 10.6386Z" fill="#F8A28B"/>
<path d="M16.3069 8.46496L11.5322 7.845C11.5067 7.8418 11.4813 7.83722 11.4565 7.83188C11.4314 7.79648 11.4314 7.7478 11.4594 7.7121L12.1842 6.781C12.3777 6.52954 12.3307 6.16852 12.0793 5.97473C11.8278 5.78079 11.4668 5.82779 11.273 6.07925L10.8584 6.61178L11.1428 4.41879L14.8847 3.9331C15.3375 3.87421 15.7523 4.19418 15.8112 4.64691L16.3069 8.46496Z" fill="#F58C79"/>
<path d="M12.6338 9.02802C12.6338 9.15314 12.5943 9.27979 12.5119 9.38645C12.3239 9.63059 11.9735 9.67697 11.7282 9.49021L10.7696 8.75962C10.726 8.7262 10.6633 8.73413 10.6296 8.77777L9.8895 9.72885C9.77918 9.87091 9.61378 9.94507 9.447 9.94507C9.32767 9.94507 9.20713 9.90723 9.10535 9.82849C8.84733 9.62967 8.80003 9.25675 9.00007 8.99964L9.71418 8.08258C9.74836 8.03849 9.74012 7.9747 9.69572 7.94098L8.7573 7.2255C8.50584 7.03217 8.45884 6.67115 8.65278 6.41922C8.84657 6.16776 9.20759 6.12091 9.45905 6.3147L10.4037 7.03461C10.4474 7.06787 10.5099 7.06009 10.5436 7.01645L10.8584 6.61179L10.8186 6.91849C10.7631 7.34619 11.0441 7.73926 11.4566 7.83188C11.4624 7.84012 11.4694 7.84745 11.4775 7.8537L12.402 8.55835C12.5538 8.67401 12.6338 8.8498 12.6338 9.02802Z" fill="white"/>
<path d="M17.9279 0.00487801L18.0682 0.0231886C18.3891 0.064845 18.6153 0.358577 18.5737 0.679469L16.1063 19.6913H14.7756L17.2717 0.510554C17.3132 0.189662 17.607 -0.0367785 17.9279 0.00487801Z" fill="#996459"/>
<path d="M18.0682 0.0230171L17.928 0.00470656C17.8086 -0.0107048 17.6933 0.0109627 17.593 0.0605537C17.8353 0.1576 17.9914 0.408454 17.9563 0.679298L15.489 19.6911H16.1064L18.5737 0.679298C18.6154 0.358405 18.3891 0.0646736 18.0682 0.0230171Z" fill="#875850"/>
<path d="M12.1842 6.78101L11.4594 7.7121C11.4313 7.74796 11.4313 7.79649 11.4565 7.83189C11.044 7.73926 10.763 7.3462 10.8185 6.91849L10.8583 6.61179L11.2729 6.07926C11.4667 5.8278 11.8277 5.7808 12.0792 5.97474C12.3307 6.16853 12.3777 6.52955 12.1842 6.78101Z" fill="#EFF2FA"/>
<path d="M12.1974 7.2992L21.937 8.56324C22.367 8.61893 22.7607 8.31574 22.8164 7.8859L23.4846 2.73743C23.5404 2.30759 23.2372 1.91376 22.8073 1.85807L13.0676 0.594028C12.6377 0.538181 12.2441 0.841526 12.1882 1.27137L11.52 6.41983C11.4643 6.84967 11.7675 7.24335 12.1974 7.2992Z" fill="#05FF00"/>
<path d="M16.325 6.24512C16.1879 6.2294 16.0627 6.15982 15.977 6.05179L15.0065 4.8288C14.828 4.60373 14.8655 4.27643 15.0906 4.0979C15.3157 3.91938 15.6428 3.95691 15.8215 4.18198L16.4686 4.99756L18.7309 3.20221C18.9558 3.02368 19.2831 3.06137 19.4616 3.28644C19.6402 3.51136 19.6026 3.83866 19.3776 4.01718L16.7079 6.13587C16.5997 6.22162 16.4621 6.26099 16.325 6.24512Z" fill="white"/>
<path d="M17.7075 20H10.0929C9.92242 20 9.78418 19.8618 9.78418 19.6913C9.78418 19.5207 9.92242 19.3826 10.0929 19.3826H17.7075C17.8781 19.3826 18.0163 19.5207 18.0163 19.6913C18.0161 19.8618 17.8781 20 17.7075 20Z" fill="#5C546A"/>
</g>
</g>
<defs>
<filter id="filter0_d" x="0" y="0" width="28" height="28" filterUnits="userSpaceOnUse" color-interpolation-filters="sRGB">
<feFlood flood-opacity="0" result="BackgroundImageFix"/>
<feColorMatrix in="SourceAlpha" type="matrix" values="0 0 0 0 0 0 0 0 0 0 0 0 0 0 0 0 0 0 127 0"/>
<feOffset dy="4"/>
<feGaussianBlur stdDeviation="2"/>
<feColorMatrix type="matrix" values="0 0 0 0 0 0 0 0 0 0 0 0 0 0 0 0 0 0 0.25 0"/>
<feBlend mode="normal" in2="BackgroundImageFix" result="effect1_dropShadow"/>
<feBlend mode="normal" in="SourceGraphic" in2="effect1_dropShadow" result="shape"/>
</filter>
<clipPath id="clip0">
<rect x="4" width="20" height="20" fill="white"/>
</clipPath>
</defs>
</svg>
