<svg width="14" height="14" viewBox="0 0 14 14" fill="none" xmlns="http://www.w3.org/2000/svg">
<path d="M14 13.3814L9.25522 8.63657C10.0301 7.7215 10.5 6.54029 10.5 5.25001C10.5 2.35498 8.14501 0 5.25001 0C2.355 0 0 2.35498 0 5.25001C0 8.14504 2.35498 10.5 5.25001 10.5C6.54029 10.5 7.7215 10.0301 8.63657 9.25522L13.3814 14L14 13.3814ZM5.25001 9.625C2.83777 9.625 0.875009 7.66224 0.875009 5.25001C0.875009 2.83777 2.83777 0.875009 5.25001 0.875009C7.66224 0.875009 9.625 2.83777 9.625 5.25001C9.625 7.66224 7.66224 9.625 5.25001 9.625Z" fill="white"/>
</svg>
