<svg width="68" height="68" viewBox="0 0 68 68" fill="none" xmlns="http://www.w3.org/2000/svg">
<g clip-path="url(#clip0)">
<path d="M58.8043 42.6497C57.7963 42.209 56.6217 42.6693 56.1811 43.6775C52.3272 52.4969 43.6207 58.1956 33.9996 58.1956C22.113 58.1956 12.039 49.378 10.1307 37.9455L15.4147 41.4761C16.3295 42.0875 17.5667 41.8414 18.178 40.9264C18.7894 40.0116 18.5431 38.7745 17.6283 38.1631L8.91807 32.3432C8.47873 32.0496 7.94084 31.943 7.4226 32.0457C6.90437 32.1487 6.44842 32.4535 6.15477 32.8929L0.335859 41.6031C-0.275345 42.5181 -0.0291103 43.7552 0.885702 44.3664C1.2257 44.5937 1.61019 44.7023 1.99057 44.7023C2.63352 44.7023 3.26491 44.3914 3.64887 43.8167L6.39702 39.7032C7.51531 45.1646 10.2329 50.1743 14.3007 54.1514C19.5965 59.3288 26.5922 62.1803 33.9997 62.1803C45.2043 62.1803 55.3443 55.5438 59.8322 45.273C60.2728 44.2647 59.8126 43.0902 58.8043 42.6497Z" fill="black"/>
<path d="M67.1145 23.6339C66.1994 23.0227 64.9624 23.2688 64.3512 24.1836L61.6027 28.2969C60.4844 22.8354 57.7668 17.8257 53.699 13.8486C48.4032 8.67122 41.4073 5.81973 33.9998 5.81973C22.7954 5.81973 12.6554 12.4564 8.16741 22.727C7.72687 23.7352 8.18707 24.9097 9.19525 25.3502C10.2034 25.7907 11.3779 25.3305 11.8186 24.3224C15.6724 15.5031 24.379 9.80411 34 9.80411C45.8864 9.80411 55.9604 18.6219 57.869 30.0543L52.5849 26.5239C51.67 25.9124 50.433 26.1588 49.8217 27.0736C49.2105 27.9885 49.4566 29.2257 50.3715 29.8369L59.0815 35.6564C59.4215 35.8837 59.806 35.9923 60.1863 35.9923C60.8294 35.9923 61.4605 35.6816 61.8445 35.1067L67.6641 26.3973C68.2753 25.4822 68.0292 24.2451 67.1145 23.6339Z" fill="black"/>
</g>
<g clip-path="url(#clip1)">
<path d="M47.2421 24.6947C46.1565 24.6947 45.2737 25.5776 45.2737 26.6632C45.2737 27.7487 46.1565 28.6316 47.2421 28.6316C48.3276 28.6316 49.2105 27.7488 49.2105 26.6632C49.2105 25.5776 48.3276 24.6947 47.2421 24.6947ZM47.2421 27.6474C46.6993 27.6474 46.2579 27.206 46.2579 26.6632C46.2579 26.1204 46.6993 25.6789 47.2421 25.6789C47.7849 25.6789 48.2263 26.1203 48.2263 26.6632C48.2263 27.206 47.7849 27.6474 47.2421 27.6474Z" fill="black"/>
<path d="M21.6526 40.9342C20.5671 40.9342 19.6842 41.8171 19.6842 42.9026C19.6842 43.9882 20.5671 44.871 21.6526 44.871C22.7382 44.871 23.621 43.9882 23.621 42.9026C23.621 41.8171 22.7382 40.9342 21.6526 40.9342ZM21.6526 43.8868C21.1098 43.8868 20.6684 43.4455 20.6684 42.9026C20.6684 42.3598 21.1098 41.9184 21.6526 41.9184C22.1954 41.9184 22.6368 42.3598 22.6368 42.9026C22.6368 43.4455 22.1954 43.8868 21.6526 43.8868Z" fill="black"/>
<path d="M46.288 25.3168L42.0426 23.2672C41.7975 23.1485 41.5038 23.2519 41.3857 23.4965C41.2675 23.7411 41.3704 24.0354 41.615 24.1535L45.8604 26.2031C45.9293 26.2365 46.0021 26.2523 46.0739 26.2523C46.257 26.2523 46.4327 26.1499 46.5173 25.9737C46.6354 25.7291 46.5326 25.4349 46.288 25.3168Z" fill="black"/>
<path d="M41.829 44.3789C40.7434 44.3789 39.8606 45.2618 39.8606 46.3473C39.8606 47.4329 40.7434 48.3158 41.829 48.3158C42.9146 48.3158 43.7974 47.433 43.7974 46.3474C43.7974 45.2618 42.9146 44.3789 41.829 44.3789ZM41.829 47.3316C41.2862 47.3316 40.8448 46.8902 40.8448 46.3473C40.8448 45.8045 41.2862 45.3632 41.829 45.3632C42.3718 45.3632 42.8132 45.8046 42.8132 46.3474C42.8132 46.8902 42.3718 47.3316 41.829 47.3316Z" fill="black"/>
<path d="M40.8748 45.001L36.6294 42.9514C36.3843 42.8328 36.0906 42.9357 35.9724 43.1808C35.8543 43.4253 35.9572 43.7196 36.2018 43.8377L40.4472 45.8873C40.5161 45.9208 40.5889 45.9365 40.6607 45.9365C40.8438 45.9365 41.0195 45.8341 41.1041 45.658C41.2222 45.4133 41.1194 45.1191 40.8748 45.001Z" fill="black"/>
<path d="M34.4474 32.0763C33.3618 32.0763 32.479 32.9592 32.479 34.0447C32.479 35.1304 33.3619 36.0131 34.4474 36.0131C35.533 36.0131 36.4158 35.1303 36.4158 34.0447C36.4158 32.9592 35.533 32.0763 34.4474 32.0763ZM34.4474 35.029C33.9046 35.029 33.4632 34.5876 33.4632 34.0447C33.4632 33.502 33.9046 33.0605 34.4474 33.0605C34.9902 33.0605 35.4316 33.5019 35.4316 34.0447C35.4316 34.5876 34.9902 35.029 34.4474 35.029Z" fill="black"/>
<path d="M33.5823 32.7535L30.3211 30.2117C30.1065 30.0459 29.7975 30.0828 29.6302 30.2974C29.4634 30.5119 29.5012 30.8209 29.7158 30.9883L32.977 33.53C33.0671 33.5999 33.1734 33.6339 33.2792 33.6339C33.4258 33.6339 33.5705 33.569 33.6679 33.4444C33.8348 33.2298 33.7969 32.9208 33.5823 32.7535Z" fill="black"/>
<path d="M43.3053 31.5842C40.3206 31.5842 37.8921 34.0128 37.8921 36.9974C37.8921 39.982 40.3206 42.4106 43.3053 42.4106C46.2899 42.4106 48.7184 39.982 48.7184 36.9974C48.7184 34.0128 46.2899 31.5842 43.3053 31.5842ZM43.3053 41.4263C40.8629 41.4263 38.8763 39.4397 38.8763 36.9973C38.8763 34.555 40.8629 32.5684 43.3053 32.5684C45.7476 32.5684 47.7342 34.555 47.7342 36.9973C47.7342 39.4397 45.7476 41.4263 43.3053 41.4263Z" fill="black"/>
<path d="M43.3052 33.5526C42.2196 33.5526 41.3368 34.4355 41.3368 35.521C41.3368 36.6066 42.2196 37.4894 43.3052 37.4894C44.3908 37.4894 45.2736 36.6066 45.2736 35.521C45.2736 34.4355 44.3908 33.5526 43.3052 33.5526ZM43.3052 36.5053C42.7624 36.5053 42.321 36.0639 42.321 35.521C42.321 34.9783 42.7624 34.5368 43.3052 34.5368C43.848 34.5368 44.2894 34.9782 44.2894 35.521C44.2894 36.0639 43.848 36.5053 43.3052 36.5053Z" fill="black"/>
<path d="M44.7329 38.4737H41.8777C41.0367 38.4737 40.3527 39.1395 40.3527 39.9574V41.2546C40.3527 41.4302 40.4461 41.5926 40.5982 41.6807C41.423 42.1581 42.359 42.4105 43.3053 42.4105C44.2516 42.4105 45.1876 42.1581 46.0124 41.6807C46.1645 41.5931 46.2579 41.4302 46.2579 41.2551V39.9579C46.2579 39.1395 45.5739 38.4737 44.7329 38.4737ZM45.2737 40.9613C44.0489 41.5715 42.5617 41.5715 41.3368 40.9613V39.9579C41.3368 39.6823 41.5794 39.4579 41.8777 39.4579H44.7328C45.031 39.4579 45.2736 39.6823 45.2736 39.9579V40.9613H45.2737Z" fill="black"/>
<path d="M31.4947 37.4895C28.5101 37.4895 26.0815 39.918 26.0815 42.9027C26.0815 45.8873 28.5101 48.3158 31.4947 48.3158C34.4794 48.3158 36.9079 45.8873 36.9079 42.9026C36.9079 39.918 34.4794 37.4895 31.4947 37.4895ZM31.4947 47.3316C29.0524 47.3316 27.0658 45.3449 27.0658 42.9026C27.0658 40.4603 29.0524 38.4737 31.4947 38.4737C33.937 38.4737 35.9237 40.4603 35.9237 42.9026C35.9237 45.3449 33.937 47.3316 31.4947 47.3316Z" fill="black"/>
<path d="M31.4946 39.4579C30.409 39.4579 29.5262 40.3407 29.5262 41.4263C29.5262 42.5119 30.4091 43.3947 31.4946 43.3947C32.5802 43.3947 33.463 42.5118 33.463 41.4263C33.463 40.3407 32.5803 39.4579 31.4946 39.4579ZM31.4946 42.4105C30.9519 42.4105 30.5104 41.9691 30.5104 41.4263C30.5104 40.8835 30.9518 40.4421 31.4946 40.4421C32.0374 40.4421 32.4789 40.8835 32.4789 41.4263C32.4789 41.9691 32.0374 42.4105 31.4946 42.4105Z" fill="black"/>
<path d="M32.9223 44.3789H30.0672C29.2262 44.3789 28.5421 45.0448 28.5421 45.8626V47.1598C28.5421 47.3355 28.6356 47.4979 28.7877 47.586C29.6124 48.0633 30.5484 48.3158 31.4947 48.3158C32.4411 48.3158 33.377 48.0633 34.2018 47.586C34.3539 47.4984 34.4474 47.3356 34.4474 47.1604V45.8632C34.4474 45.0448 33.7634 44.3789 32.9223 44.3789ZM33.4631 46.8665C32.2383 47.4767 30.7512 47.4767 29.5263 46.8665V45.8632C29.5263 45.5876 29.7689 45.3632 30.0671 45.3632H32.9223C33.2205 45.3632 33.4631 45.5876 33.4631 45.8632V46.8665H33.4631Z" fill="black"/>
<path d="M25.0974 25.1868C22.1127 25.1868 19.6842 27.6154 19.6842 30.6C19.6842 33.5846 22.1127 36.0132 25.0974 36.0132C28.082 36.0132 30.5106 33.5846 30.5106 30.6C30.5105 27.6154 28.082 25.1868 25.0974 25.1868ZM25.0974 35.029C22.6551 35.029 20.6684 33.0423 20.6684 30.6C20.6684 28.1577 22.6551 26.1711 25.0974 26.1711C27.5397 26.1711 29.5263 28.1577 29.5263 30.6C29.5263 33.0423 27.5397 35.029 25.0974 35.029Z" fill="black"/>
<path d="M25.0973 27.1553C24.0117 27.1553 23.1289 28.0381 23.1289 29.1237C23.1289 30.2092 24.0118 31.0921 25.0973 31.0921C26.1829 31.0921 27.0657 30.2092 27.0657 29.1237C27.0657 28.0381 26.1829 27.1553 25.0973 27.1553ZM25.0973 30.1079C24.5545 30.1079 24.1131 29.6665 24.1131 29.1237C24.1131 28.5808 24.5545 28.1394 25.0973 28.1394C25.6401 28.1394 26.0815 28.5808 26.0815 29.1237C26.0815 29.6665 25.6401 30.1079 25.0973 30.1079Z" fill="black"/>
<path d="M26.525 32.0763H23.6698C22.8288 32.0763 22.1448 32.7422 22.1448 33.56V34.8572C22.1448 35.0329 22.2383 35.1953 22.3903 35.2834C23.2151 35.7607 24.1511 36.0132 25.0974 36.0132C26.0437 36.0132 26.9797 35.7607 27.8045 35.2834C27.9566 35.1958 28.05 35.0329 28.05 34.8578V33.5606C28.05 32.7422 27.366 32.0763 26.525 32.0763ZM27.0658 34.5639C25.841 35.1741 24.3538 35.1741 23.1289 34.5639V33.5606C23.1289 33.285 23.3716 33.0606 23.6698 33.0606H26.5249C26.8231 33.0606 27.0658 33.285 27.0658 33.5606V34.5639H27.0658Z" fill="black"/>
<path d="M36.9079 18.7895C33.9233 18.7895 31.4948 21.218 31.4948 24.2027C31.4948 27.1873 33.9233 29.6158 36.9079 29.6158C39.8926 29.6158 42.3211 27.1873 42.3211 24.2027C42.321 21.218 39.8925 18.7895 36.9079 18.7895ZM36.9079 28.6316C34.4656 28.6316 32.479 26.645 32.479 24.2027C32.479 21.7603 34.4656 19.7737 36.9079 19.7737C39.3502 19.7737 41.3369 21.7603 41.3369 24.2027C41.3369 26.645 39.3502 28.6316 36.9079 28.6316Z" fill="black"/>
<path d="M36.908 20.7579C35.8224 20.7579 34.9396 21.6407 34.9396 22.7263C34.9396 23.8118 35.8224 24.6947 36.908 24.6947C37.9935 24.6947 38.8764 23.8119 38.8764 22.7263C38.8764 21.6408 37.9935 20.7579 36.908 20.7579ZM36.908 23.7105C36.3652 23.7105 35.9237 23.2691 35.9237 22.7263C35.9237 22.1835 36.3651 21.7421 36.908 21.7421C37.4508 21.7421 37.8922 22.1835 37.8922 22.7263C37.8921 23.2691 37.4507 23.7105 36.908 23.7105Z" fill="black"/>
<path d="M38.3355 25.679H35.4804C34.6394 25.679 33.9553 26.3448 33.9553 27.1627V28.4599C33.9553 28.6355 34.0488 28.7979 34.2009 28.886C35.0257 29.3634 35.9616 29.6158 36.908 29.6158C37.8543 29.6158 38.7903 29.3634 39.615 28.886C39.7671 28.7984 39.8606 28.6355 39.8606 28.4604V27.1632C39.8606 26.3448 39.1765 25.679 38.3355 25.679ZM38.8764 28.1666C37.6515 28.7768 36.1644 28.7768 34.9395 28.1666V27.1632C34.9395 26.8876 35.1821 26.6632 35.4803 26.6632H38.3355C38.6337 26.6632 38.8763 26.8876 38.8763 27.1632V28.1666H38.8764Z" fill="black"/>
<path d="M32.3613 23.8822C32.1847 23.6765 31.8741 23.6519 31.6674 23.8286L28.2572 26.7468C28.0505 26.9235 28.0264 27.234 28.203 27.4407C28.3005 27.5543 28.4382 27.6129 28.577 27.6129C28.6902 27.6129 28.8039 27.5741 28.8969 27.4943L32.3072 24.5761C32.5139 24.3995 32.538 24.0889 32.3613 23.8822Z" fill="black"/>
<path d="M43.2068 31.7816L40.2542 27.8447C40.0913 27.6267 39.7828 27.5839 39.5652 27.7463C39.3477 27.9092 39.3039 28.2177 39.4668 28.4347L42.4194 32.3716C42.5164 32.5005 42.664 32.5684 42.8136 32.5684C42.9159 32.5684 43.0198 32.5364 43.1084 32.47C43.3259 32.3071 43.3697 31.9986 43.2068 31.7816Z" fill="black"/>
<path d="M39.1681 38.6248C39.0052 38.4072 38.6967 38.3635 38.4792 38.5263L35.7303 40.5878C35.5127 40.7507 35.469 41.0592 35.6318 41.2762C35.7288 41.4051 35.8764 41.473 36.026 41.473C36.1288 41.473 36.2322 41.4406 36.3208 41.3746L39.0697 39.3132C39.2872 39.1504 39.331 38.8418 39.1681 38.6248Z" fill="black"/>
<path d="M26.5737 42.4105H23.1289C22.8573 42.4105 22.6368 42.6305 22.6368 42.9026C22.6368 43.1748 22.8573 43.3947 23.1289 43.3947H26.5736C26.8453 43.3947 27.0657 43.1748 27.0657 42.9026C27.0657 42.6305 26.8453 42.4105 26.5737 42.4105Z" fill="black"/>
<path d="M25.0974 18.7895C24.0118 18.7895 23.1289 19.6723 23.1289 20.7579C23.1289 21.8435 24.0118 22.7263 25.0973 22.7263C26.1829 22.7263 27.0657 21.8434 27.0657 20.7579C27.0658 19.6723 26.1829 18.7895 25.0974 18.7895ZM25.0974 21.7421C24.5546 21.7421 24.1131 21.3007 24.1131 20.7579C24.1131 20.2151 24.5545 19.7736 25.0974 19.7736C25.6401 19.7736 26.0816 20.215 26.0816 20.7579C26.0815 21.3007 25.6401 21.7421 25.0974 21.7421Z" fill="black"/>
<path d="M25.0973 21.7421C24.8257 21.7421 24.6052 21.962 24.6052 22.2342V25.6789C24.6052 25.951 24.8257 26.171 25.0973 26.171C25.3689 26.171 25.5894 25.951 25.5894 25.6789V22.2342C25.5894 21.962 25.3689 21.7421 25.0973 21.7421Z" fill="black"/>
</g>
<defs>
<clipPath id="clip0">
<rect width="68" height="68" fill="white"/>
</clipPath>
<clipPath id="clip1">
<rect x="19.6842" y="18.7895" width="29.5263" height="29.5263" fill="white"/>
</clipPath>
</defs>
</svg>
