<svg width="154" height="154" viewBox="0 0 154 154" fill="none" xmlns="http://www.w3.org/2000/svg">
<rect x="38" y="3" width="78" height="14" rx="1" fill="#9196CA"/>
<path d="M89.8334 7.7H64.1668C62.7501 7.7 61.6002 8.84988 61.6002 10.2666C61.6002 11.6832 62.7501 12.8331 64.1668 12.8331H89.8334C91.25 12.8331 92.3999 11.6832 92.3999 10.2666C92.3999 8.84988 91.25 7.7 89.8334 7.7Z" fill="black"/>
<path d="M107.8 7.7H105.233C103.817 7.7 102.667 8.84988 102.667 10.2666C102.667 11.6832 103.817 12.8331 105.233 12.8331H107.8C109.217 12.8331 110.367 11.6832 110.367 10.2666C110.367 8.84988 109.217 7.7 107.8 7.7Z" fill="black"/>
<rect x="38.0001" y="128" width="78" height="21" fill="#9196CA"/>
<rect x="70.0001" y="135" width="13" height="7" fill="#806565"/>
<path d="M80.1877 130.9H73.8148C69.9109 130.9 66.7335 134.077 66.7335 137.981V139.221C66.7335 143.125 69.9109 146.3 73.8123 146.3H80.1853C84.0891 146.3 87.2666 143.125 87.2666 139.221V137.981C87.2666 134.077 84.0891 130.9 80.1877 130.9ZM82.1335 139.221C82.1335 140.294 81.2609 141.167 80.188 141.167H73.8148C72.7395 141.167 71.8666 140.294 71.8666 139.221V137.981C71.8666 136.906 72.7392 136.033 73.8148 136.033H80.1853C81.2609 136.033 82.1335 136.906 82.1335 137.981V139.221Z" fill="black"/>
<path d="M111.357 0H42.6451C37.5297 0 33.3666 4.16311 33.3666 9.2785V144.721C33.3666 149.837 37.5297 154 42.6451 154H111.355C116.47 154 120.633 149.837 120.633 144.724V9.2785C120.633 4.16311 116.47 0 111.357 0ZM115.5 144.721C115.5 147.006 113.642 148.867 111.357 148.867H42.6451C40.3582 148.867 38.5 147.006 38.5 144.724V9.2785C38.5 6.99407 40.3582 5.13343 42.6451 5.13343H111.355C113.641 5.13343 115.5 6.99437 115.5 9.2785V144.721H115.5Z" fill="black"/>
<path d="M118.067 15.4H35.9335C34.5168 15.4 33.3669 16.5499 33.3669 17.9666V125.767C33.3669 127.183 34.5168 128.333 35.9335 128.333H118.067C119.484 128.333 120.633 127.183 120.633 125.767V17.9666C120.633 16.5499 119.484 15.4 118.067 15.4ZM115.5 123.2H38.5V20.5334H115.5V123.2Z" fill="black"/>
<path d="M63.9168 39.9053C63.006 39.9053 62.2666 40.6439 62.2666 41.5547V43.2049H52.3676V33.306H57.3175C58.2283 33.306 58.9669 32.5673 58.9669 31.6558C58.9669 30.7449 58.2283 30.0063 57.3175 30.0063H52.3676C50.5452 30.0063 49.068 31.4836 49.068 33.306V43.2049C49.068 45.0273 50.5452 46.5046 52.3676 46.5046H62.2666C64.089 46.5046 65.567 45.0273 65.567 43.2049V41.5547C65.567 40.6439 64.8284 39.9053 63.9168 39.9053Z" fill="black"/>
<path d="M62.2666 78.9485H52.3676C50.5452 78.9485 49.068 80.4258 49.068 82.2482V92.1471C49.068 93.9695 50.5452 95.4468 52.3676 95.4468H62.2666C64.089 95.4468 65.567 93.9695 65.567 92.1471V82.2482C65.567 80.4258 64.089 78.9485 62.2666 78.9485ZM52.3676 92.1471V82.2482H62.2666V92.1471H52.3676Z" fill="black"/>
<path d="M70.5161 36.6056H78.7657C79.6765 36.6056 80.4151 35.867 80.4151 34.9554C80.4151 34.0446 79.6765 33.306 78.7657 33.306H70.5161C69.6053 33.306 68.8667 34.0446 68.8667 34.9554C68.8667 35.867 69.6053 36.6056 70.5161 36.6056Z" fill="black"/>
<path d="M100.214 33.306H85.3649C84.4533 33.306 83.7147 34.0446 83.7147 34.9554C83.7147 35.867 84.4533 36.6056 85.3649 36.6056H100.214C101.125 36.6056 101.863 35.867 101.863 34.9554C101.863 34.0446 101.125 33.306 100.214 33.306Z" fill="black"/>
<path d="M70.5161 43.2049H87.0144C87.926 43.2049 88.6646 42.4663 88.6646 41.5547C88.6646 40.6439 87.926 39.9053 87.0144 39.9053H70.5161C69.6053 39.9053 68.8667 40.6439 68.8667 41.5547C68.8667 42.4663 69.6053 43.2049 70.5161 43.2049Z" fill="black"/>
<path d="M100.214 39.9053H93.6144C92.7029 39.9053 91.9642 40.6439 91.9642 41.5547C91.9642 42.4663 92.7029 43.2049 93.6144 43.2049H100.214C101.125 43.2049 101.863 42.4663 101.863 41.5547C101.863 40.6439 101.125 39.9053 100.214 39.9053Z" fill="black"/>
<path d="M70.5161 60.7032H78.7657C79.6765 60.7032 80.4151 59.9645 80.4151 59.0537C80.4151 58.1421 79.6765 57.4035 78.7657 57.4035H70.5161C69.6053 57.4035 68.8667 58.1421 68.8667 59.0537C68.8667 59.9645 69.6053 60.7032 70.5161 60.7032Z" fill="black"/>
<path d="M100.214 57.4035H85.3649C84.4533 57.4035 83.7147 58.1421 83.7147 59.0537C83.7147 59.9645 84.4533 60.7032 85.3649 60.7032H100.214C101.125 60.7032 101.863 59.9645 101.863 59.0537C101.863 58.1421 101.125 57.4035 100.214 57.4035Z" fill="black"/>
<path d="M87.0144 64.0028H70.5161C69.6053 64.0028 68.8667 64.7414 68.8667 65.653C68.8667 66.5638 69.6053 67.3025 70.5161 67.3025H87.0144C87.926 67.3025 88.6646 66.5638 88.6646 65.653C88.6646 64.7414 87.926 64.0028 87.0144 64.0028Z" fill="black"/>
<path d="M100.214 64.0028H93.6144C92.7029 64.0028 91.9642 64.7414 91.9642 65.653C91.9642 66.5638 92.7029 67.3025 93.6144 67.3025H100.214C101.125 67.3025 101.863 66.5638 101.863 65.653C101.863 64.7414 101.125 64.0028 100.214 64.0028Z" fill="black"/>
<path d="M65.8753 27.3977L58.7564 37.3608L56.8343 35.4388C56.187 34.8134 55.1576 34.8225 54.5217 35.4591C53.8851 36.0958 53.876 37.1245 54.5013 37.7717L57.801 41.0713C58.1106 41.381 58.5298 41.5547 58.9671 41.5547H59.103C59.5864 41.5147 60.0274 41.2632 60.3084 40.8689L68.5579 29.3198C68.928 28.8417 69.0073 28.1998 68.7641 27.6462C68.5209 27.0926 67.9945 26.7165 67.3918 26.6659C66.7899 26.6145 66.2076 26.8977 65.8753 27.4022V27.3977Z" fill="black"/>
<path d="M62.2666 102.104H52.3676C50.5452 102.104 49.068 103.581 49.068 105.404V115.302C49.068 117.125 50.5452 118.602 52.3676 118.602H62.2666C64.089 118.602 65.567 117.125 65.567 115.302V105.404C65.567 103.581 64.089 102.104 62.2666 102.104ZM52.3676 115.302V105.404H62.2666V115.302H52.3676Z" fill="black"/>
<path d="M70.5161 85.6056H78.7657C79.6765 85.6056 80.4151 84.867 80.4151 83.9554C80.4151 83.0446 79.6765 82.306 78.7657 82.306H70.5161C69.6053 82.306 68.8667 83.0446 68.8667 83.9554C68.8667 84.867 69.6053 85.6056 70.5161 85.6056Z" fill="black"/>
<path d="M100.214 82.306H85.3649C84.4533 82.306 83.7147 83.0446 83.7147 83.9554C83.7147 84.867 84.4533 85.6056 85.3649 85.6056H100.214C101.125 85.6056 101.863 84.867 101.863 83.9554C101.863 83.0446 101.125 82.306 100.214 82.306Z" fill="black"/>
<path d="M70.5161 92.2049H87.0144C87.926 92.2049 88.6646 91.4663 88.6646 90.5547C88.6646 89.6439 87.926 88.9053 87.0144 88.9053H70.5161C69.6053 88.9053 68.8667 89.6439 68.8667 90.5547C68.8667 91.4663 69.6053 92.2049 70.5161 92.2049Z" fill="black"/>
<path d="M100.214 88.9053H93.6144C92.7029 88.9053 91.9642 89.6439 91.9642 90.5547C91.9642 91.4663 92.7029 92.2049 93.6144 92.2049H100.214C101.125 92.2049 101.863 91.4663 101.863 90.5547C101.863 89.6439 101.125 88.9053 100.214 88.9053Z" fill="black"/>
<path d="M70.5161 108.703H78.7657C79.6765 108.703 80.4151 107.965 80.4151 107.054C80.4151 106.142 79.6765 105.404 78.7657 105.404H70.5161C69.6053 105.404 68.8667 106.142 68.8667 107.054C68.8667 107.965 69.6053 108.703 70.5161 108.703Z" fill="black"/>
<path d="M100.214 105.404H85.3649C84.4533 105.404 83.7147 106.142 83.7147 107.054C83.7147 107.965 84.4533 108.703 85.3649 108.703H100.214C101.125 108.703 101.863 107.965 101.863 107.054C101.863 106.142 101.125 105.404 100.214 105.404Z" fill="black"/>
<path d="M87.0144 112.003H70.5161C69.6053 112.003 68.8667 112.741 68.8667 113.653C68.8667 114.564 69.6053 115.302 70.5161 115.302H87.0144C87.926 115.302 88.6646 114.564 88.6646 113.653C88.6646 112.741 87.926 112.003 87.0144 112.003Z" fill="black"/>
<path d="M100.214 112.003H93.6144C92.7029 112.003 91.9642 112.741 91.9642 113.653C91.9642 114.564 92.7029 115.302 93.6144 115.302H100.214C101.125 115.302 101.863 114.564 101.863 113.653C101.863 112.741 101.125 112.003 100.214 112.003Z" fill="black"/>
<path d="M63.9168 67.3492C63.006 67.3492 62.2666 68.0878 62.2666 68.9987V70.6489H52.3676V60.7499H57.3175C58.2283 60.7499 58.9669 60.0113 58.9669 59.0997C58.9669 58.1889 58.2283 57.4503 57.3175 57.4503H52.3676C50.5452 57.4503 49.068 58.9275 49.068 60.7499V70.6489C49.068 72.4713 50.5452 73.9485 52.3676 73.9485H62.2666C64.089 73.9485 65.567 72.4713 65.567 70.6489V68.9987C65.567 68.0878 64.8284 67.3492 63.9168 67.3492Z" fill="black"/>
<path d="M65.8753 54.8417L58.7564 64.8048L56.8343 62.8827C56.187 62.2574 55.1576 62.2664 54.5217 62.9031C53.8851 63.5398 53.876 64.5684 54.5013 65.2156L57.801 68.5153C58.1106 68.8249 58.5298 68.9987 58.9671 68.9987H59.103C59.5864 68.9586 60.0274 68.7071 60.3084 68.3129L68.5579 56.7637C68.928 56.2857 69.0073 55.6437 68.7641 55.0901C68.5209 54.5365 67.9945 54.1604 67.3918 54.1098C66.7899 54.0585 66.2076 54.3417 65.8753 54.8462V54.8417Z" fill="black"/>
</svg>
