<svg width="154" height="154" viewBox="0 0 154 154" fill="none" xmlns="http://www.w3.org/2000/svg">
<rect x="38" y="3" width="78" height="14" rx="1" fill="#9196CA"/>
<path d="M89.8334 7.7H64.1668C62.7501 7.7 61.6002 8.84988 61.6002 10.2666C61.6002 11.6832 62.7501 12.8331 64.1668 12.8331H89.8334C91.25 12.8331 92.3999 11.6832 92.3999 10.2666C92.3999 8.84988 91.25 7.7 89.8334 7.7Z" fill="black"/>
<path d="M107.8 7.7H105.233C103.817 7.7 102.667 8.84988 102.667 10.2666C102.667 11.6832 103.817 12.8331 105.233 12.8331H107.8C109.217 12.8331 110.367 11.6832 110.367 10.2666C110.367 8.84988 109.217 7.7 107.8 7.7Z" fill="black"/>
<rect x="38" y="128" width="78" height="21" fill="#9196CA"/>
<rect x="70" y="135" width="13" height="7" fill="#806565"/>
<path d="M80.1876 130.9H73.8147C69.9109 130.9 66.7334 134.077 66.7334 137.981V139.221C66.7334 143.125 69.9108 146.3 73.8123 146.3H80.1852C84.0891 146.3 87.2665 143.125 87.2665 139.221V137.981C87.2665 134.077 84.0891 130.9 80.1876 130.9ZM82.1334 139.221C82.1334 140.294 81.2608 141.167 80.1879 141.167H73.8147C72.7394 141.167 71.8665 140.294 71.8665 139.221V137.981C71.8665 136.906 72.7391 136.033 73.8147 136.033H80.1852C81.2608 136.033 82.1334 136.906 82.1334 137.981V139.221Z" fill="black"/>
<path d="M111.357 0H42.6451C37.5297 0 33.3666 4.16311 33.3666 9.2785V144.721C33.3666 149.837 37.5297 154 42.6451 154H111.355C116.47 154 120.633 149.837 120.633 144.724V9.2785C120.633 4.16311 116.47 0 111.357 0ZM115.5 144.721C115.5 147.006 113.642 148.867 111.357 148.867H42.6451C40.3582 148.867 38.5 147.006 38.5 144.724V9.2785C38.5 6.99407 40.3582 5.13343 42.6451 5.13343H111.355C113.641 5.13343 115.5 6.99437 115.5 9.2785V144.721H115.5Z" fill="black"/>
<path d="M118.067 15.4H35.9334C34.5167 15.4 33.3668 16.5499 33.3668 17.9666V125.767C33.3668 127.183 34.5167 128.333 35.9334 128.333H118.067C119.484 128.333 120.633 127.183 120.633 125.767V17.9666C120.633 16.5499 119.483 15.4 118.067 15.4ZM115.5 123.2H38.5V20.5334H115.5V123.2Z" fill="black"/>
<path d="M44.5161 36.6056H52.7657C53.6765 36.6056 54.4151 35.867 54.4151 34.9554C54.4151 34.0446 53.6765 33.306 52.7657 33.306H44.5161C43.6053 33.306 42.8667 34.0446 42.8667 34.9554C42.8667 35.867 43.6053 36.6056 44.5161 36.6056Z" fill="black"/>
<path d="M74.2138 33.306H59.365C58.4535 33.306 57.7148 34.0446 57.7148 34.9554C57.7148 35.867 58.4535 36.6056 59.365 36.6056H74.2138C75.1247 36.6056 75.8633 35.867 75.8633 34.9554C75.8633 34.0446 75.1247 33.306 74.2138 33.306Z" fill="black"/>
<path d="M44.5161 43.2049H61.0144C61.926 43.2049 62.6646 42.4663 62.6646 41.5547C62.6646 40.6439 61.926 39.9053 61.0144 39.9053H44.5161C43.6053 39.9053 42.8667 40.6439 42.8667 41.5547C42.8667 42.4663 43.6053 43.2049 44.5161 43.2049Z" fill="black"/>
<path d="M74.2139 39.9053H67.6146C66.703 39.9053 65.9644 40.6439 65.9644 41.5547C65.9644 42.4663 66.703 43.2049 67.6146 43.2049H74.2139C75.1247 43.2049 75.8633 42.4663 75.8633 41.5547C75.8633 40.6439 75.1247 39.9053 74.2139 39.9053Z" fill="black"/>
<path d="M79.5161 60.7032H87.7657C88.6765 60.7032 89.4151 59.9645 89.4151 59.0537C89.4151 58.1421 88.6765 57.4035 87.7657 57.4035H79.5161C78.6053 57.4035 77.8667 58.1421 77.8667 59.0537C77.8667 59.9645 78.6053 60.7032 79.5161 60.7032Z" fill="black"/>
<path d="M109.214 57.4035H94.365C93.4535 57.4035 92.7148 58.1421 92.7148 59.0537C92.7148 59.9645 93.4535 60.7032 94.365 60.7032H109.214C110.125 60.7032 110.863 59.9645 110.863 59.0537C110.863 58.1421 110.125 57.4035 109.214 57.4035Z" fill="black"/>
<path d="M96.0144 64.0028H79.5161C78.6053 64.0028 77.8667 64.7414 77.8667 65.653C77.8667 66.5638 78.6053 67.3025 79.5161 67.3025H96.0144C96.926 67.3025 97.6646 66.5638 97.6646 65.653C97.6646 64.7414 96.926 64.0028 96.0144 64.0028Z" fill="black"/>
<path d="M109.214 64.0028H102.615C101.703 64.0028 100.964 64.7414 100.964 65.653C100.964 66.5638 101.703 67.3025 102.615 67.3025H109.214C110.125 67.3025 110.863 66.5638 110.863 65.653C110.863 64.7414 110.125 64.0028 109.214 64.0028Z" fill="black"/>
<path d="M44.5161 85.6056H52.7657C53.6765 85.6056 54.4151 84.867 54.4151 83.9554C54.4151 83.0446 53.6765 82.306 52.7657 82.306H44.5161C43.6053 82.306 42.8667 83.0446 42.8667 83.9554C42.8667 84.867 43.6053 85.6056 44.5161 85.6056Z" fill="black"/>
<path d="M74.2138 82.306H59.365C58.4535 82.306 57.7148 83.0446 57.7148 83.9554C57.7148 84.867 58.4535 85.6056 59.365 85.6056H74.2138C75.1247 85.6056 75.8633 84.867 75.8633 83.9554C75.8633 83.0446 75.1247 82.306 74.2138 82.306Z" fill="black"/>
<path d="M44.5161 92.2049H61.0144C61.926 92.2049 62.6646 91.4663 62.6646 90.5547C62.6646 89.6439 61.926 88.9053 61.0144 88.9053H44.5161C43.6053 88.9053 42.8667 89.6439 42.8667 90.5547C42.8667 91.4663 43.6053 92.2049 44.5161 92.2049Z" fill="black"/>
<path d="M74.2139 88.9053H67.6146C66.703 88.9053 65.9644 89.6439 65.9644 90.5547C65.9644 91.4663 66.703 92.2049 67.6146 92.2049H74.2139C75.1247 92.2049 75.8633 91.4663 75.8633 90.5547C75.8633 89.6439 75.1247 88.9053 74.2139 88.9053Z" fill="black"/>
<path d="M80.5161 108.703H88.7657C89.6765 108.703 90.4151 107.965 90.4151 107.054C90.4151 106.142 89.6765 105.404 88.7657 105.404H80.5161C79.6053 105.404 78.8667 106.142 78.8667 107.054C78.8667 107.965 79.6053 108.703 80.5161 108.703Z" fill="black"/>
<path d="M110.214 105.404H95.365C94.4535 105.404 93.7148 106.142 93.7148 107.054C93.7148 107.965 94.4535 108.703 95.365 108.703H110.214C111.125 108.703 111.863 107.965 111.863 107.054C111.863 106.142 111.125 105.404 110.214 105.404Z" fill="black"/>
<path d="M97.0144 112.003H80.5161C79.6053 112.003 78.8667 112.741 78.8667 113.653C78.8667 114.564 79.6053 115.302 80.5161 115.302H97.0144C97.926 115.302 98.6646 114.564 98.6646 113.653C98.6646 112.741 97.926 112.003 97.0144 112.003Z" fill="black"/>
<path d="M110.214 112.003H103.615C102.703 112.003 101.964 112.741 101.964 113.653C101.964 114.564 102.703 115.302 103.615 115.302H110.214C111.125 115.302 111.863 114.564 111.863 113.653C111.863 112.741 111.125 112.003 110.214 112.003Z" fill="black"/>
</svg>
