<svg width="154" height="154" viewBox="0 0 154 154" fill="none" xmlns="http://www.w3.org/2000/svg">
<rect x="38" y="3" width="78" height="14" rx="1" fill="#9196CA"/>
<path d="M89.8334 7.7H64.1668C62.7501 7.7 61.6002 8.84988 61.6002 10.2666C61.6002 11.6832 62.7501 12.8331 64.1668 12.8331H89.8334C91.25 12.8331 92.3999 11.6832 92.3999 10.2666C92.3999 8.84988 91.25 7.7 89.8334 7.7Z" fill="black"/>
<path d="M107.8 7.7H105.233C103.817 7.7 102.667 8.84988 102.667 10.2666C102.667 11.6832 103.817 12.8331 105.233 12.8331H107.8C109.217 12.8331 110.367 11.6832 110.367 10.2666C110.367 8.84988 109.217 7.7 107.8 7.7Z" fill="black"/>
<rect x="38" y="128" width="78" height="21" fill="#9196CA"/>
<rect x="70" y="135" width="13" height="7" fill="#806565"/>
<path d="M80.1876 130.9H73.8147C69.9109 130.9 66.7334 134.077 66.7334 137.981V139.221C66.7334 143.125 69.9108 146.3 73.8123 146.3H80.1852C84.0891 146.3 87.2665 143.125 87.2665 139.221V137.981C87.2665 134.077 84.0891 130.9 80.1876 130.9ZM82.1334 139.221C82.1334 140.294 81.2608 141.167 80.1879 141.167H73.8147C72.7394 141.167 71.8665 140.294 71.8665 139.221V137.981C71.8665 136.906 72.7391 136.033 73.8147 136.033H80.1852C81.2608 136.033 82.1334 136.906 82.1334 137.981V139.221Z" fill="black"/>
<path d="M111.357 0H42.6451C37.5297 0 33.3666 4.16311 33.3666 9.2785V144.721C33.3666 149.837 37.5297 154 42.6451 154H111.355C116.47 154 120.633 149.837 120.633 144.724V9.2785C120.633 4.16311 116.47 0 111.357 0ZM115.5 144.721C115.5 147.006 113.642 148.867 111.357 148.867H42.6451C40.3582 148.867 38.5 147.006 38.5 144.724V9.2785C38.5 6.99407 40.3582 5.13343 42.6451 5.13343H111.355C113.641 5.13343 115.5 6.99437 115.5 9.2785V144.721H115.5Z" fill="black"/>
<path d="M118.067 15.4H35.9334C34.5167 15.4 33.3668 16.5499 33.3668 17.9666V125.767C33.3668 127.183 34.5167 128.333 35.9334 128.333H118.067C119.484 128.333 120.633 127.183 120.633 125.767V17.9666C120.633 16.5499 119.483 15.4 118.067 15.4ZM115.5 123.2H38.5V20.5334H115.5V123.2Z" fill="black"/>
<path d="M70.5161 36.6056H78.7657C79.6765 36.6056 80.4151 35.867 80.4151 34.9554C80.4151 34.0446 79.6765 33.306 78.7657 33.306H70.5161C69.6053 33.306 68.8667 34.0446 68.8667 34.9554C68.8667 35.867 69.6053 36.6056 70.5161 36.6056Z" fill="black"/>
<path d="M100.214 33.306H85.3649C84.4533 33.306 83.7147 34.0446 83.7147 34.9554C83.7147 35.867 84.4533 36.6056 85.3649 36.6056H100.214C101.125 36.6056 101.863 35.867 101.863 34.9554C101.863 34.0446 101.125 33.306 100.214 33.306Z" fill="black"/>
<path d="M70.5161 43.2049H87.0144C87.926 43.2049 88.6646 42.4663 88.6646 41.5547C88.6646 40.6439 87.926 39.9053 87.0144 39.9053H70.5161C69.6053 39.9053 68.8667 40.6439 68.8667 41.5547C68.8667 42.4663 69.6053 43.2049 70.5161 43.2049Z" fill="black"/>
<path d="M100.214 39.9053H93.6144C92.7029 39.9053 91.9642 40.6439 91.9642 41.5547C91.9642 42.4663 92.7029 43.2049 93.6144 43.2049H100.214C101.125 43.2049 101.863 42.4663 101.863 41.5547C101.863 40.6439 101.125 39.9053 100.214 39.9053Z" fill="black"/>
<path d="M70.5161 60.7032H78.7657C79.6765 60.7032 80.4151 59.9645 80.4151 59.0537C80.4151 58.1421 79.6765 57.4035 78.7657 57.4035H70.5161C69.6053 57.4035 68.8667 58.1421 68.8667 59.0537C68.8667 59.9645 69.6053 60.7032 70.5161 60.7032Z" fill="black"/>
<path d="M100.214 57.4035H85.3649C84.4533 57.4035 83.7147 58.1421 83.7147 59.0537C83.7147 59.9645 84.4533 60.7032 85.3649 60.7032H100.214C101.125 60.7032 101.863 59.9645 101.863 59.0537C101.863 58.1421 101.125 57.4035 100.214 57.4035Z" fill="black"/>
<path d="M87.0144 64.0028H70.5161C69.6053 64.0028 68.8667 64.7414 68.8667 65.653C68.8667 66.5638 69.6053 67.3025 70.5161 67.3025H87.0144C87.926 67.3025 88.6646 66.5638 88.6646 65.653C88.6646 64.7414 87.926 64.0028 87.0144 64.0028Z" fill="black"/>
<path d="M100.214 64.0028H93.6144C92.7029 64.0028 91.9642 64.7414 91.9642 65.653C91.9642 66.5638 92.7029 67.3025 93.6144 67.3025H100.214C101.125 67.3025 101.863 66.5638 101.863 65.653C101.863 64.7414 101.125 64.0028 100.214 64.0028Z" fill="black"/>
<path d="M70.5161 85.6056H78.7657C79.6765 85.6056 80.4151 84.867 80.4151 83.9554C80.4151 83.0446 79.6765 82.306 78.7657 82.306H70.5161C69.6053 82.306 68.8667 83.0446 68.8667 83.9554C68.8667 84.867 69.6053 85.6056 70.5161 85.6056Z" fill="black"/>
<path d="M100.214 82.306H85.3649C84.4533 82.306 83.7147 83.0446 83.7147 83.9554C83.7147 84.867 84.4533 85.6056 85.3649 85.6056H100.214C101.125 85.6056 101.863 84.867 101.863 83.9554C101.863 83.0446 101.125 82.306 100.214 82.306Z" fill="black"/>
<path d="M70.5161 92.2049H87.0144C87.926 92.2049 88.6646 91.4663 88.6646 90.5547C88.6646 89.6439 87.926 88.9053 87.0144 88.9053H70.5161C69.6053 88.9053 68.8667 89.6439 68.8667 90.5547C68.8667 91.4663 69.6053 92.2049 70.5161 92.2049Z" fill="black"/>
<path d="M100.214 88.9053H93.6144C92.7029 88.9053 91.9642 89.6439 91.9642 90.5547C91.9642 91.4663 92.7029 92.2049 93.6144 92.2049H100.214C101.125 92.2049 101.863 91.4663 101.863 90.5547C101.863 89.6439 101.125 88.9053 100.214 88.9053Z" fill="black"/>
<path d="M70.5161 108.703H78.7657C79.6765 108.703 80.4151 107.965 80.4151 107.054C80.4151 106.142 79.6765 105.404 78.7657 105.404H70.5161C69.6053 105.404 68.8667 106.142 68.8667 107.054C68.8667 107.965 69.6053 108.703 70.5161 108.703Z" fill="black"/>
<path d="M100.214 105.404H85.3649C84.4533 105.404 83.7147 106.142 83.7147 107.054C83.7147 107.965 84.4533 108.703 85.3649 108.703H100.214C101.125 108.703 101.863 107.965 101.863 107.054C101.863 106.142 101.125 105.404 100.214 105.404Z" fill="black"/>
<path d="M87.0144 112.003H70.5161C69.6053 112.003 68.8667 112.741 68.8667 113.653C68.8667 114.564 69.6053 115.302 70.5161 115.302H87.0144C87.926 115.302 88.6646 114.564 88.6646 113.653C88.6646 112.741 87.926 112.003 87.0144 112.003Z" fill="black"/>
<path d="M100.214 112.003H93.6144C92.7029 112.003 91.9642 112.741 91.9642 113.653C91.9642 114.564 92.7029 115.302 93.6144 115.302H100.214C101.125 115.302 101.863 114.564 101.863 113.653C101.863 112.741 101.125 112.003 100.214 112.003Z" fill="black"/>
<path d="M60.6179 40.3135C60.4466 39.4551 59.6414 39.309 59.6388 39.3079V39.3079C59.6302 39.3054 59.7127 39.326 57.6751 38.821V38.7518H59.1751C59.4842 38.7518 59.7358 38.5003 59.7358 38.1911V35.3305C59.761 35.2241 59.761 35.1135 59.7358 35.007V33.9629C59.7358 33.8577 59.6505 33.7725 59.5453 33.7725C59.4401 33.7725 59.3548 33.8577 59.3548 33.9629V34.5095C59.2543 34.4495 59.1395 34.4064 59.0157 34.3851C58.971 34.1867 58.8062 34.0297 58.5971 34.0023C58.3792 33.9737 58.2141 33.8466 58.1063 33.6248C58.0559 33.5209 57.957 33.4527 57.842 33.4422C57.7269 33.4318 57.6179 33.481 57.5497 33.5739C57.2223 34.0194 56.3122 35.0188 54.7406 35.0187C54.621 35.0187 54.5399 35.013 54.5117 35.0118C54.2229 34.9944 53.9787 35.2251 53.9787 35.5145V35.9521C53.9787 36.6516 54.2689 37.3296 54.7748 37.8125C54.9425 37.9726 55.1276 38.1062 55.325 38.2127V38.371H53.8319C53.7327 38.371 53.6521 38.2903 53.6521 38.1912V33.9116C53.6521 32.5242 54.7833 31.3809 56.1498 31.3809C56.1542 31.3809 56.1586 31.381 56.163 31.381C56.6526 31.3836 57.2178 31.5227 57.603 31.7352C57.8472 31.8699 57.998 31.7628 58.2391 31.7628C58.8275 31.7628 59.299 32.3679 59.3556 32.9121C59.3559 32.92 59.3567 32.952 59.3569 33.0742C59.357 33.2581 59.5646 33.2722 59.5475 33.2645C59.6527 33.2645 59.7378 33.1791 59.7378 33.0739C59.7377 33.0401 59.738 32.9075 59.7348 32.8767C59.6583 32.1191 59.012 31.3819 58.2391 31.3819C57.9372 31.3819 57.8901 31.4584 57.7871 31.4017C57.3503 31.1607 56.7136 31.003 56.165 31.0001C54.5839 30.9898 53.2711 32.307 53.2711 33.9116V38.1912C53.2711 38.5003 53.5227 38.7519 53.8319 38.7519H55.325V38.821L53.3689 39.3058C53.3663 39.3064 53.3638 39.3072 53.3612 39.3079L53.2183 39.35C53.214 39.3513 53.2098 39.3527 53.2056 39.3543C52.9506 39.4494 52.5045 39.7006 52.3821 40.3136C51.8025 43.2254 51.8269 43.1011 51.8255 43.1111C51.7556 43.6049 52.0029 44 52.5976 44H54.6571C54.7624 44 54.8476 43.9147 54.8476 43.8095C54.8476 43.7043 54.7623 43.6191 54.6571 43.6191H53.9404V41.8227C53.9404 41.7175 53.8552 41.6322 53.75 41.6322C53.6448 41.6322 53.5595 41.7175 53.5595 41.8227V43.6191H52.5976C52.3446 43.6191 52.1977 43.5376 52.1952 43.2719C52.1942 43.1422 52.1891 43.2686 52.7557 40.388C52.841 39.9609 53.1512 39.7825 53.3329 39.7134L53.465 39.6744L54.5882 39.396C55.8378 40.8681 55.7638 40.7901 55.836 40.8605C56.2531 41.2673 56.8482 41.2386 57.2399 40.7786L58.4161 39.3971L59.5351 39.6744C59.5674 39.6893 60.1245 39.7873 60.2444 40.388C60.8061 43.2436 60.8059 43.1416 60.8049 43.2717C60.8029 43.532 60.6621 43.6191 60.4025 43.6191H59.4474V41.8227C59.4474 41.7175 59.3622 41.6322 59.2569 41.6322C59.1517 41.6322 59.0665 41.7175 59.0665 41.8227V43.6191H55.5459C55.4407 43.6191 55.3555 43.7043 55.3555 43.8095C55.3555 43.9147 55.4408 44 55.5459 44H60.4025C60.8731 44 61.1814 43.7411 61.1858 43.2747C61.1874 43.057 61.1744 43.161 60.6179 40.3135ZM59.0282 34.7781C59.1872 34.8254 59.3099 34.9302 59.3549 35.0596V35.2778C59.3099 35.4073 59.1872 35.5121 59.0282 35.5594V34.7781ZM59.0282 35.9853V35.9501C59.1472 35.9281 59.2577 35.886 59.3549 35.828V38.1912C59.3549 38.2903 59.2742 38.3709 59.1751 38.3709H57.6751V38.2237C58.4826 37.8016 59.0282 36.9563 59.0282 35.9853ZM55.0378 37.5369C54.6068 37.1255 54.3597 36.5479 54.3597 35.9521C54.371 35.5374 54.3322 35.4871 54.3984 35.4248C54.4218 35.4027 54.4533 35.3899 54.4888 35.3919C55.8544 35.4742 57.029 34.8738 57.8045 33.8687C58.0136 34.2358 58.3202 34.3501 58.5475 34.38C58.6044 34.3875 58.6473 34.436 58.6473 34.4929C58.6473 35.0197 58.6473 35.4622 58.6473 35.9853C58.6473 37.8804 56.3786 38.8165 55.0378 37.5369ZM56.9498 40.5317C56.6844 40.8434 56.3129 40.8426 56.0482 40.5301L55.6508 40.0611H57.3504L56.9498 40.5317ZM57.6748 39.6801H55.3281L55.0008 39.2938L55.5613 39.1549C55.6463 39.1338 55.7059 39.0557 55.7059 38.9681L55.706 38.3789C56.23 38.5536 56.7835 38.5517 57.2942 38.3843C57.2978 38.9931 57.286 38.9791 57.3048 39.0328C57.3256 39.0922 57.3751 39.139 57.4388 39.1548L58.0029 39.2947L57.6748 39.6801Z" fill="black"/>
<path d="M60.6179 112.313C60.4466 111.455 59.6414 111.309 59.6388 111.308V111.308C59.6302 111.305 59.7127 111.326 57.6751 110.821V110.752H59.1751C59.4842 110.752 59.7358 110.5 59.7358 110.191V107.33C59.761 107.224 59.761 107.114 59.7358 107.007V105.963C59.7358 105.858 59.6505 105.772 59.5453 105.772C59.4401 105.772 59.3548 105.858 59.3548 105.963V106.51C59.2543 106.449 59.1395 106.406 59.0157 106.385C58.971 106.187 58.8062 106.03 58.5971 106.002C58.3792 105.974 58.2141 105.847 58.1063 105.625C58.0559 105.521 57.957 105.453 57.842 105.442C57.7269 105.432 57.6179 105.481 57.5497 105.574C57.2223 106.019 56.3122 107.019 54.7406 107.019C54.621 107.019 54.5399 107.013 54.5117 107.012C54.2229 106.994 53.9787 107.225 53.9787 107.515V107.952C53.9787 108.652 54.2689 109.33 54.7748 109.812C54.9425 109.973 55.1276 110.106 55.325 110.213V110.371H53.8319C53.7327 110.371 53.6521 110.29 53.6521 110.191V105.912C53.6521 104.524 54.7833 103.381 56.1498 103.381C56.1542 103.381 56.1586 103.381 56.163 103.381C56.6526 103.384 57.2178 103.523 57.603 103.735C57.8472 103.87 57.998 103.763 58.2391 103.763C58.8275 103.763 59.299 104.368 59.3556 104.912C59.3559 104.92 59.3567 104.952 59.3569 105.074C59.357 105.258 59.5646 105.272 59.5475 105.265C59.6527 105.264 59.7378 105.179 59.7378 105.074C59.7377 105.04 59.738 104.908 59.7348 104.877C59.6583 104.119 59.012 103.382 58.2391 103.382C57.9372 103.382 57.8901 103.458 57.7871 103.402C57.3503 103.161 56.7136 103.003 56.165 103C54.5839 102.99 53.2711 104.307 53.2711 105.912V110.191C53.2711 110.5 53.5227 110.752 53.8319 110.752H55.325V110.821L53.3689 111.306C53.3663 111.306 53.3638 111.307 53.3612 111.308L53.2183 111.35C53.214 111.351 53.2098 111.353 53.2056 111.354C52.9506 111.449 52.5045 111.701 52.3821 112.314C51.8025 115.225 51.8269 115.101 51.8255 115.111C51.7556 115.605 52.0029 116 52.5976 116H54.6571C54.7624 116 54.8476 115.915 54.8476 115.81C54.8476 115.704 54.7623 115.619 54.6571 115.619H53.9404V113.823C53.9404 113.717 53.8552 113.632 53.75 113.632C53.6448 113.632 53.5595 113.717 53.5595 113.823V115.619H52.5976C52.3446 115.619 52.1977 115.538 52.1952 115.272C52.1942 115.142 52.1891 115.269 52.7557 112.388C52.841 111.961 53.1512 111.782 53.3329 111.713L53.465 111.674L54.5882 111.396C55.8378 112.868 55.7638 112.79 55.836 112.861C56.2531 113.267 56.8482 113.239 57.2399 112.779L58.4161 111.397L59.5351 111.674C59.5674 111.689 60.1245 111.787 60.2444 112.388C60.8061 115.244 60.8059 115.142 60.8049 115.272C60.8029 115.532 60.6621 115.619 60.4025 115.619H59.4474V113.823C59.4474 113.717 59.3622 113.632 59.2569 113.632C59.1517 113.632 59.0665 113.717 59.0665 113.823V115.619H55.5459C55.4407 115.619 55.3555 115.704 55.3555 115.81C55.3555 115.915 55.4408 116 55.5459 116H60.4025C60.8731 116 61.1814 115.741 61.1858 115.275C61.1874 115.057 61.1744 115.161 60.6179 112.313ZM59.0282 106.778C59.1872 106.825 59.3099 106.93 59.3549 107.06V107.278C59.3099 107.407 59.1872 107.512 59.0282 107.559V106.778ZM59.0282 107.985V107.95C59.1472 107.928 59.2577 107.886 59.3549 107.828V110.191C59.3549 110.29 59.2742 110.371 59.1751 110.371H57.6751V110.224C58.4826 109.802 59.0282 108.956 59.0282 107.985ZM55.0378 109.537C54.6068 109.126 54.3597 108.548 54.3597 107.952C54.371 107.537 54.3322 107.487 54.3984 107.425C54.4218 107.403 54.4533 107.39 54.4888 107.392C55.8544 107.474 57.029 106.874 57.8045 105.869C58.0136 106.236 58.3202 106.35 58.5475 106.38C58.6044 106.387 58.6473 106.436 58.6473 106.493C58.6473 107.02 58.6473 107.462 58.6473 107.985C58.6473 109.88 56.3786 110.817 55.0378 109.537ZM56.9498 112.532C56.6844 112.843 56.3129 112.843 56.0482 112.53L55.6508 112.061H57.3504L56.9498 112.532ZM57.6748 111.68H55.3281L55.0008 111.294L55.5613 111.155C55.6463 111.134 55.7059 111.056 55.7059 110.968L55.706 110.379C56.23 110.554 56.7835 110.552 57.2942 110.384C57.2978 110.993 57.286 110.979 57.3048 111.033C57.3256 111.092 57.3751 111.139 57.4388 111.155L58.0029 111.295L57.6748 111.68Z" fill="black"/>
<path d="M60.3355 66.1536C60.2142 66.1536 60.1158 66.252 60.1158 66.3733V68.4392C60.1158 68.5061 60.0614 68.5605 59.9945 68.5605H58.8133V64.2334C58.8133 64.1121 58.7149 64.0137 58.5936 64.0137C58.4723 64.0137 58.3739 64.1121 58.3739 64.2334V68.5605H55.9954L56.6851 67.8017C56.7605 67.7188 56.796 67.6007 56.7802 67.4857C56.7799 67.4835 56.7795 67.4813 56.7792 67.479L56.1222 63.5982L56.2992 63.3317C56.3971 63.4012 56.4724 63.4681 56.6138 63.4681C56.7576 63.4681 56.892 63.3877 56.9582 63.2552L57.6511 61.8665L59.2295 62.4778C59.2866 62.5022 60.1157 62.8757 60.1157 63.8617V65.3479C60.1157 65.4692 60.2141 65.5676 60.3355 65.5676C60.4568 65.5676 60.5552 65.4693 60.5552 65.3479V63.8617C60.5552 62.5625 59.4428 62.0903 59.3955 62.0708L59.3913 62.0692L56.7643 61.0518V60.4357C57.1815 60.1112 57.4709 59.6302 57.5435 59.0814C57.7515 59.0667 57.9446 58.989 58.1022 58.8535C58.3081 58.6764 58.4262 58.4188 58.4262 58.1467C58.4262 57.9208 58.3447 57.7052 58.1995 57.5372V56.7232C58.1995 55.2217 56.9779 54 55.4763 54C53.9747 54 52.7531 55.2217 52.7531 56.7232V57.5585C52.6063 57.7248 52.5265 57.9296 52.5265 58.1466C52.5265 58.4188 52.6446 58.6765 52.8505 58.8535C53.0081 58.989 53.201 59.0666 53.409 59.0813C53.4822 59.6404 53.7799 60.1393 54.2327 60.4682V61.0518L51.6085 62.0691L51.6044 62.0708C51.557 62.0902 50.4447 62.5625 50.4447 63.8616V68.4391C50.4447 68.7483 50.6963 68.9999 51.0055 68.9999H53.099C53.2203 68.9999 53.3187 68.9015 53.3187 68.7802C53.3187 68.6588 53.2203 68.5605 53.099 68.5605H52.6262V64.2334C52.6262 64.1121 52.5278 64.0137 52.4065 64.0137C52.2851 64.0137 52.1868 64.1121 52.1868 64.2334V68.5605H51.0055C50.9386 68.5605 50.8842 68.5061 50.8842 68.4392V63.8617C50.8842 62.8723 51.719 62.4998 51.7702 62.4778L53.3474 61.8664L54.0403 63.2551C54.1066 63.3879 54.2413 63.4681 54.3848 63.4681C54.5254 63.4681 54.6001 63.4022 54.6993 63.3317L54.8763 63.5982L54.2195 67.4791C54.2191 67.4812 54.2188 67.4834 54.2184 67.4857C54.2026 67.6006 54.2381 67.7188 54.3135 67.8018L55.0032 68.5605H54.1244C54.0031 68.5605 53.9047 68.6589 53.9047 68.7803C53.9047 68.9016 54.0031 69 54.1244 69H59.9945C60.3037 69 60.5553 68.7484 60.5553 68.4392V66.3734C60.5553 66.252 60.4569 66.1536 60.3355 66.1536ZM57.2395 61.7071L56.5935 63.0017C56.5774 62.9903 56.2351 62.7471 55.8166 62.45C55.9982 62.2258 55.7858 62.488 56.6145 61.4651L57.2395 61.7071ZM55.9407 63.0771L55.7732 63.3293H55.2252L55.0577 63.0771L55.4992 62.7636L55.9407 63.0771ZM54.6721 61.1227V60.7115C54.9391 60.8191 55.2244 60.869 55.503 60.869C55.7911 60.869 56.0736 60.8076 56.3248 60.6977V61.1245L55.4992 62.1436L54.6721 61.1227ZM57.9867 58.1467C57.9867 58.2906 57.9243 58.4268 57.8157 58.5203C57.7438 58.5821 57.657 58.6216 57.5619 58.6371V57.6563C57.8144 57.6973 57.9867 57.9068 57.9867 58.1467ZM53.3908 58.6371C53.1354 58.5956 52.966 58.3845 52.966 58.1466C52.966 57.9117 53.1607 57.7205 53.3908 57.6674V58.6371ZM53.4026 57.2196C53.3326 57.2276 53.2524 57.2466 53.1926 57.2669V56.7232C53.1926 55.464 54.2171 54.4395 55.4763 54.4395C56.7356 54.4395 57.76 55.464 57.76 56.7232V57.2518C57.6962 57.2324 57.6299 57.2196 57.5619 57.2135C57.5619 57.0015 57.5638 57.0424 56.8702 56.2967C56.7426 56.1597 56.5316 56.131 56.3711 56.2359C55.6055 56.7359 54.6717 56.9872 53.8101 56.9253C53.6211 56.9111 53.4489 57.0356 53.4026 57.2196ZM53.8303 58.8101V57.4392V57.367C54.7788 57.4225 55.7732 57.1408 56.5765 56.6263C56.8946 56.9678 57.0669 57.147 57.1225 57.2151C57.1225 57.3875 57.1225 58.6127 57.1225 58.81C57.1225 59.7021 56.3951 60.4295 55.503 60.4295C54.5012 60.4295 53.8303 59.6524 53.8303 58.8101ZM54.4049 63.0017L53.759 61.7071L54.3828 61.4655L55.1809 62.4506C54.775 62.7388 54.4418 62.9756 54.4049 63.0017ZM54.657 67.5264L55.293 63.7687H55.7053L56.3413 67.5264L55.4992 68.4529L54.657 67.5264Z" fill="black"/>
<path d="M61.3355 92.1536C61.2142 92.1536 61.1158 92.252 61.1158 92.3733V94.4392C61.1158 94.5061 61.0614 94.5605 60.9945 94.5605H59.8133V90.2334C59.8133 90.1121 59.7149 90.0137 59.5936 90.0137C59.4723 90.0137 59.3739 90.1121 59.3739 90.2334V94.5605H56.9954L57.6851 93.8017C57.7605 93.7188 57.796 93.6007 57.7802 93.4857C57.7799 93.4835 57.7795 93.4813 57.7792 93.479L57.1222 89.5982L57.2992 89.3317C57.3971 89.4012 57.4724 89.4681 57.6138 89.4681C57.7576 89.4681 57.892 89.3877 57.9582 89.2552L58.6511 87.8665L60.2295 88.4778C60.2866 88.5022 61.1157 88.8757 61.1157 89.8617V91.3479C61.1157 91.4692 61.2141 91.5676 61.3355 91.5676C61.4568 91.5676 61.5552 91.4693 61.5552 91.3479V89.8617C61.5552 88.5625 60.4428 88.0903 60.3955 88.0708L60.3913 88.0692L57.7643 87.0518V86.4357C58.1815 86.1112 58.4709 85.6302 58.5435 85.0814C58.7515 85.0667 58.9446 84.989 59.1022 84.8535C59.3081 84.6764 59.4262 84.4188 59.4262 84.1467C59.4262 83.9208 59.3447 83.7052 59.1995 83.5372V82.7232C59.1995 81.2217 57.9779 80 56.4763 80C54.9747 80 53.7531 81.2217 53.7531 82.7232V83.5585C53.6063 83.7248 53.5265 83.9296 53.5265 84.1466C53.5265 84.4188 53.6446 84.6765 53.8505 84.8535C54.0081 84.989 54.201 85.0666 54.409 85.0813C54.4822 85.6404 54.7799 86.1393 55.2327 86.4682V87.0518L52.6085 88.0691L52.6044 88.0708C52.557 88.0902 51.4447 88.5625 51.4447 89.8616V94.4391C51.4447 94.7483 51.6963 94.9999 52.0055 94.9999H54.099C54.2203 94.9999 54.3187 94.9015 54.3187 94.7802C54.3187 94.6588 54.2203 94.5605 54.099 94.5605H53.6262V90.2334C53.6262 90.1121 53.5278 90.0137 53.4065 90.0137C53.2851 90.0137 53.1868 90.1121 53.1868 90.2334V94.5605H52.0055C51.9386 94.5605 51.8842 94.5061 51.8842 94.4392V89.8617C51.8842 88.8723 52.719 88.4998 52.7702 88.4778L54.3474 87.8664L55.0403 89.2551C55.1066 89.3879 55.2413 89.4681 55.3848 89.4681C55.5254 89.4681 55.6001 89.4022 55.6993 89.3317L55.8763 89.5982L55.2195 93.4791C55.2191 93.4812 55.2188 93.4834 55.2184 93.4857C55.2026 93.6006 55.2381 93.7188 55.3135 93.8018L56.0032 94.5605H55.1244C55.0031 94.5605 54.9047 94.6589 54.9047 94.7803C54.9047 94.9016 55.0031 95 55.1244 95H60.9945C61.3037 95 61.5553 94.7484 61.5553 94.4392V92.3734C61.5553 92.252 61.4569 92.1536 61.3355 92.1536ZM58.2395 87.7071L57.5935 89.0017C57.5774 88.9903 57.2351 88.7471 56.8166 88.45C56.9982 88.2258 56.7858 88.488 57.6145 87.4651L58.2395 87.7071ZM56.9407 89.0771L56.7732 89.3293H56.2252L56.0577 89.0771L56.4992 88.7636L56.9407 89.0771ZM55.6721 87.1227V86.7115C55.9391 86.8191 56.2244 86.869 56.503 86.869C56.7911 86.869 57.0736 86.8076 57.3248 86.6977V87.1245L56.4992 88.1436L55.6721 87.1227ZM58.9867 84.1467C58.9867 84.2906 58.9243 84.4268 58.8157 84.5203C58.7438 84.5821 58.657 84.6216 58.5619 84.6371V83.6563C58.8144 83.6973 58.9867 83.9068 58.9867 84.1467ZM54.3908 84.6371C54.1354 84.5956 53.966 84.3845 53.966 84.1466C53.966 83.9117 54.1607 83.7205 54.3908 83.6674V84.6371ZM54.4026 83.2196C54.3326 83.2276 54.2524 83.2466 54.1926 83.2669V82.7232C54.1926 81.464 55.2171 80.4395 56.4763 80.4395C57.7356 80.4395 58.76 81.464 58.76 82.7232V83.2518C58.6962 83.2324 58.6299 83.2196 58.5619 83.2135C58.5619 83.0015 58.8161 83.5825 58.1225 82.8368C57.9949 82.6998 57.4598 82.9805 57.2992 83.0854C56.5337 83.5854 55.6717 82.9872 54.8101 82.9253C54.6211 82.9111 54.4489 83.0356 54.4026 83.2196ZM54.8303 84.8101V83.4392V83.367C55.7788 83.4225 56.6967 83.8815 57.5 83.367C57.8181 83.7085 58.0669 83.147 58.1225 83.2151C58.1225 83.3875 58.1225 84.6127 58.1225 84.81C58.1225 85.7021 57.3951 86.4295 56.503 86.4295C55.5012 86.4295 54.8303 85.6524 54.8303 84.8101ZM55.4049 89.0017L54.759 87.7071L55.3828 87.4655L56.1809 88.4506C55.775 88.7388 55.4418 88.9756 55.4049 89.0017ZM55.2147 93.5355L56.293 89.7687H56.7053L57.7802 93.4857L56.4992 94.4529L55.2147 93.5355Z" fill="black"/>
</svg>
